<svg width="150" height="150" viewBox="0 0 27 29" fill="none" xmlns="http://www.w3.org/2000/svg">
    <path fill-rule="evenodd" clip-rule="evenodd" d="M12.6821 0.923017C13.0819 0.442816 13.8193 0.442816 14.2191 0.923017L24.535 13.3131C25.0774 13.9645 24.6142 14.953 23.7665 14.953H20.2108L26.449 22.5586C26.9844 23.2114 26.52 24.1928 25.6759 24.1928H18.0449V27.7775C18.0449 28.3298 17.5972 28.7775 17.0449 28.7775H9.85629C9.304 28.7775 8.85629 28.3298 8.85629 27.7775V24.1928H1.32413C0.479939 24.1928 0.0155779 23.2114 0.550946 22.5586L6.78919 14.953H3.13465C2.28702 14.953 1.8238 13.9645 2.36615 13.3131L12.6821 0.923017Z" fill="#686B6F"/>
</svg>
